<?xml version="1.0" encoding="iso-8859-1"?>
<!-- Uploaded to: SVG Repo, www.svgrepo.com, Generator: SVG Repo Mixer Tools -->
<svg version="1.1" id="Layer_1" xmlns="http://www.w3.org/2000/svg" xmlns:xlink="http://www.w3.org/1999/xlink" 
	 viewBox="0 0 512 512" xml:space="preserve">
<polygon style="fill:#D67F43;" points="30.456,460.247 30.456,182.472 481.544,141.213 481.544,460.247 "/>
<g>
	<path style="fill:#A54E31;" d="M144.272,320.371h-42.825v-54.338c0-20.675,16.916-37.591,37.591-37.591l0,0
		c20.675,0,37.591,16.916,37.591,37.591v54.338H144.272z"/>
	<path style="fill:#A54E31;" d="M261.367,320.371h-42.825v-54.338c0-20.675,16.916-37.591,37.591-37.591l0,0
		c20.675,0,37.591,16.916,37.591,37.591v54.338H261.367z"/>
	<path style="fill:#A54E31;" d="M378.196,320.371h-42.825v-54.338c0-20.675,16.916-37.591,37.591-37.591l0,0
		c20.675,0,37.591,16.916,37.591,37.591v54.338H378.196z"/>
	<path style="fill:#A54E31;" d="M144.272,449.783h-42.825v-54.338c0-20.675,16.916-37.591,37.591-37.591l0,0
		c20.675,0,37.591,16.916,37.591,37.591v54.338H144.272z"/>
	<path style="fill:#A54E31;" d="M261.367,449.783h-42.825v-54.338c0-20.675,16.916-37.591,37.591-37.591l0,0
		c20.675,0,37.591,16.916,37.591,37.591v54.338H261.367z"/>
	<path style="fill:#A54E31;" d="M378.196,449.783h-42.825v-54.338c0-20.675,16.916-37.591,37.591-37.591l0,0
		c20.675,0,37.591,16.916,37.591,37.591v54.338H378.196z"/>
	<rect x="10.442" y="460.246" style="fill:#A54E31;" width="491.112" height="34.436"/>
</g>
<path d="M176.628,422.288c-5.766,0-10.442,4.675-10.442,10.442v0.228c0,5.767,4.676,10.442,10.442,10.442
	c5.766,0,10.442-4.675,10.442-10.442v-0.228C187.07,426.963,182.395,422.288,176.628,422.288z"/>
<path d="M293.591,422.288c-5.766,0-10.442,4.675-10.442,10.442v0.228c0,5.767,4.676,10.442,10.442,10.442
	s10.442-4.675,10.442-10.442v-0.228C304.033,426.963,299.357,422.288,293.591,422.288z"/>
<path d="M410.553,422.288c-5.766,0-10.442,4.675-10.442,10.442v0.228c0,5.767,4.676,10.442,10.442,10.442
	s10.442-4.675,10.442-10.442v-0.228C420.995,426.963,416.319,422.288,410.553,422.288z"/>
<path d="M101.447,330.812h42.825c5.766,0,10.442-4.675,10.442-10.442s-4.676-10.442-10.442-10.442h-32.383v-43.897
	c0-14.969,12.178-27.149,27.149-27.149s27.149,12.179,27.149,27.149v5.807c0,5.767,4.676,10.442,10.442,10.442
	c5.766,0,10.442-4.675,10.442-10.442v-5.807c0-26.485-21.548-48.033-48.033-48.033s-48.033,21.548-48.033,48.033v54.338
	C91.005,326.137,95.681,330.812,101.447,330.812z"/>
<path d="M176.628,292.875c-5.766,0-10.442,4.675-10.442,10.442v0.228c0,5.767,4.676,10.442,10.442,10.442
	c5.766,0,10.442-4.675,10.442-10.442v-0.228C187.07,297.55,182.395,292.875,176.628,292.875z"/>
<path d="M218.409,330.812h43.508c5.766,0,10.442-4.675,10.442-10.442s-4.676-10.442-10.442-10.442h-33.066v-43.897
	c0-14.969,12.178-27.149,27.149-27.149c14.969,0,27.148,12.179,27.148,27.149v5.807c0,5.767,4.676,10.442,10.442,10.442
	c5.766,0,10.442-4.675,10.442-10.442v-5.807c0-26.485-21.547-48.033-48.032-48.033s-48.033,21.548-48.033,48.033v54.338
	C207.967,326.137,212.643,330.812,218.409,330.812z"/>
<path d="M293.591,292.875c-5.766,0-10.442,4.675-10.442,10.442v0.228c0,5.767,4.676,10.442,10.442,10.442
	s10.442-4.675,10.442-10.442v-0.228C304.033,297.55,299.357,292.875,293.591,292.875z"/>
<path d="M335.372,330.812h45.583c5.766,0,10.442-4.675,10.442-10.442s-4.676-10.442-10.442-10.442h-35.141v-43.897
	c0-14.969,12.178-27.149,27.148-27.149c14.971,0,27.149,12.179,27.149,27.149v5.807c0,5.767,4.676,10.442,10.442,10.442
	c5.766,0,10.442-4.675,10.442-10.442v-5.807c0-26.485-21.548-48.033-48.033-48.033c-26.485,0-48.031,21.548-48.031,48.033v54.338
	C324.93,326.137,329.605,330.812,335.372,330.812z"/>
<path d="M410.553,292.875c-5.766,0-10.442,4.675-10.442,10.442v0.228c0,5.767,4.676,10.442,10.442,10.442
	s10.442-4.675,10.442-10.442v-0.228C420.995,297.55,416.319,292.875,410.553,292.875z"/>
<path d="M501.558,449.805h-9.572V141.213c0-2.935-1.235-5.734-3.403-7.712c-2.167-1.979-5.071-2.955-7.99-2.686L29.505,172.074
	c-5.375,0.492-9.491,5.001-9.491,10.398v267.334h-9.572C4.676,449.805,0,454.48,0,460.247v34.436
	c0,5.767,4.676,10.442,10.442,10.442h491.116c5.766,0,10.442-4.675,10.442-10.442v-34.436
	C512,454.48,507.324,449.805,501.558,449.805z M40.898,192.002l430.205-39.348v297.151h-125.29c0-0.007,0.001-0.015,0.001-0.022
	v-54.338c0-14.969,12.178-27.149,27.148-27.149c14.971,0,27.149,12.178,27.149,27.149v5.807c0,5.767,4.676,10.442,10.442,10.442
	c5.766,0,10.442-4.675,10.442-10.442v-5.807c0-26.485-21.548-48.033-48.033-48.033c-26.485,0-48.031,21.547-48.031,48.033v54.338
	c0,0.007,0.001,0.015,0.001,0.022H228.85c0-0.007,0.001-0.015,0.001-0.022v-54.338c0-14.969,12.178-27.149,27.149-27.149
	c14.969,0,27.148,12.178,27.148,27.149v5.807c0,5.767,4.676,10.442,10.442,10.442c5.766,0,10.442-4.675,10.442-10.442v-5.807
	c0-26.485-21.547-48.033-48.032-48.033s-48.033,21.547-48.033,48.033v54.338c0,0.007,0.001,0.015,0.001,0.022h-96.081
	c0-0.007,0.001-0.015,0.001-0.022v-54.338c0-14.969,12.178-27.149,27.149-27.149s27.149,12.178,27.149,27.149v5.807
	c0,5.767,4.676,10.442,10.442,10.442c5.766,0,10.442-4.675,10.442-10.442v-5.807c0-26.485-21.548-48.033-48.033-48.033
	s-48.033,21.547-48.033,48.033v54.338c0,0.007,0.001,0.015,0.001,0.022H40.898V192.002z M491.116,484.241H20.884v-13.552h9.572
	h451.088h9.572L491.116,484.241L491.116,484.241z"/>
<path d="M379.257,27.759c11.61,0,21.057,9.446,21.057,21.057c0,5.767,4.676,10.442,10.442,10.442s10.442-4.675,10.442-10.442
	c0-11.611,9.447-21.057,21.057-21.057c5.766,0,10.442-4.675,10.442-10.442s-4.676-10.442-10.442-10.442
	c-12.542,0-23.806,5.54-31.499,14.294c-7.693-8.753-18.957-14.294-31.499-14.294c-5.766,0-10.442,4.675-10.442,10.442
	S373.491,27.759,379.257,27.759z"/>
<path d="M224.634,94.574c11.61,0,21.057,9.446,21.057,21.057c0,5.767,4.676,10.442,10.442,10.442
	c5.766,0,10.442-4.675,10.442-10.442c0-11.611,9.447-21.057,21.057-21.057c5.766,0,10.442-4.675,10.442-10.442
	s-4.676-10.442-10.442-10.442c-12.542,0-23.806,5.54-31.499,14.294c-7.693-8.753-18.957-14.294-31.499-14.294
	c-5.766,0-10.442,4.675-10.442,10.442S218.867,94.574,224.634,94.574z"/>
<path d="M10.616,61.007c11.61,0,21.057,9.446,21.057,21.057c0,5.767,4.676,10.442,10.442,10.442s10.442-4.675,10.442-10.442
	c0-11.611,9.447-21.057,21.057-21.057c5.766,0,10.442-4.675,10.442-10.442S79.38,40.123,73.614,40.123
	c-12.542,0-23.806,5.54-31.499,14.294c-7.693-8.753-18.957-14.294-31.499-14.294c-5.766,0-10.442,4.675-10.442,10.442
	S4.85,61.007,10.616,61.007z"/>
</svg>